<svg xmlns="http://www.w3.org/2000/svg" viewBox="0 0 24 24" fill="none" stroke="rgba(56, 189, 248, 0.62)" stroke-width="1.42" stroke-linecap="round" stroke-linejoin="miter" vector-effect="non-scaling-stroke">
  <path d="M9 4.9H15C16.2 4.9 17.2 5.9 17.2 7.1V18.1C17.2 19.3 16.2 20.3 15 20.3H9C7.8 20.3 6.8 19.3 6.8 18.1V7.1C6.8 5.9 7.8 4.9 9 4.9Z"></path>
  <path d="M10 3.2H14C14.9 3.2 15.6 3.9 15.6 4.8V5.2C15.6 6.1 14.9 6.8 14 6.8H10C9.1 6.8 8.4 6.1 8.4 5.2V4.8C8.4 3.9 9.1 3.2 10 3.2Z"></path>
  <path d="M9.8 10.1H14.2"></path>
  <path d="M9.8 13.4H14.2"></path>
  <path d="M9.8 16.7H14.2"></path>
</svg>
