<svg width="24" height="24" viewBox="0 0 24 24" fill="none" xmlns="http://www.w3.org/2000/svg">
  <path d="M19 10.5H13.5V5C13.5 4.17157 12.8284 3.5 12 3.5C11.1716 3.5 10.5 4.17157 10.5 5V10.5H5C4.17157 10.5 3.5 11.1716 3.5 12C3.5 12.8284 4.17157 13.5 5 13.5H10.5V19C10.5 19.8284 11.1716 20.5 12 20.5C12.8284 20.5 13.5 19.8284 13.5 19V13.5H19C19.8284 13.5 20.5 12.8284 20.5 12C20.5 11.1716 19.8284 10.5 19 10.5Z" fill="url(#paint0_linear)"/>
  <circle cx="12" cy="12" r="2.2" fill="#ffffff" opacity="0.9"/>
  <defs>
    <linearGradient id="paint0_linear" x1="3.5" y1="3.5" x2="20.5" y2="20.5" gradientUnits="userSpaceOnUse">
      <stop stop-color="#38bdf8"/>
      <stop offset="1" stop-color="#10b981"/>
    </linearGradient>
  </defs>
</svg>
